#!OML:ASF H:\Pregnant\Project 1\Capture day 1\Session 1\femalepreg.ASF
:FULLY-SPECIFIED
:DEGREES
205
root 2.97807 15.3052 32.3878 223.963 -83.5214 -201.913
lowerback -18.276 -0.615151 -8.37877
upperback -5.79094 0.337706 -0.813682
thorax 3.89934 0.0154317 3.94365
lowerneck -21.454 -1.14031 1.63227
upperneck 21.7419 -2.87927 2.26307
head 10.5502 -0.947846 0.0941714
rclavicle -2.78795e-014 -4.37326e-015
rhumerus -38.172 1.0007 -83.8422
rradius 30.1945
rwrist -6.86529
rhand -20.2082 -19.6188
rfingers 7.12502
rthumb 6.13881 -49.5099
lclavicle -2.78795e-014 -4.37326e-015
lhumerus -44.0497 -27.7503 96.7118
lradius 31.4639
lwrist 33.8509
lhand -26.7777 2.09964
lfingers 7.12502
lthumb -0.205415 32.0793
rfemur -43.5819 10.8073 10.6709
rtibia 52.3972
rfoot -20.2852 -20.3374
rtoes -4.49981
lfemur -29.9041 -0.47185 -30.2793
ltibia 16.5474
lfoot -7.74314 -2.42106
ltoes -0.349275
206
root 2.97813 15.2965 32.4019 224.495 -83.5808 -202.451
lowerback -18.2377 -0.62882 -8.35527
upperback -5.76782 0.317349 -0.863718
thorax 3.90783 0.00475444 3.87226
lowerneck -21.4298 -1.16415 1.60002
upperneck 21.8063 -2.90931 2.27637
head 10.5701 -0.96253 0.0995603
rclavicle 1.69464e-014 -2.38542e-015
rhumerus -38.1623 0.821523 -83.8965
rradius 29.7563
rwrist -6.75342
rhand -20.0465 -19.6661
rfingers 7.12502
rthumb 6.29489 -49.5526
lclavicle 1.69464e-014 -2.38542e-015
lhumerus -44.2745 -28.1666 96.9341
lradius 31.3909
lwrist 33.1805
lhand -26.1902 2.02089
lfingers 7.12502
lthumb 0.36206 32.0003
rfemur -43.9192 10.6316 10.9701
rtibia 52.5763
rfoot -20.7229 -18.888
rtoes -5.9087
lfemur -30.0978 -0.456696 -30.389
ltibia 16.8774
lfoot -7.87195 -2.54375
ltoes -0.165413
207
root 2.97757 15.2877 32.4157 225.018 -83.648 -202.974
lowerback -18.2104 -0.640037 -8.31653
upperback -5.75069 0.297673 -0.912083
thorax 3.91573 -0.00562623 3.79427
lowerneck -21.4068 -1.1871 1.56583
upperneck 21.8965 -2.93855 2.28707
head 10.5996 -0.977108 0.104353
rclavicle -1.68346e-014 1.98785e-015
rhumerus -38.1594 0.670871 -83.9615
rradius 29.3283
rwrist -6.66853
rhand -19.8719 -19.7437
rfingers 7.12502
rthumb 6.46352 -49.6251
lclavicle -1.68346e-014 1.98785e-015
lhumerus -44.4662 -28.5008 97.1091
lradius 31.3045
lwrist 32.6269
lhand -25.6803 1.91065
lfingers 7.12502
lthumb 0.854487 31.8887
rfemur -44.2353 10.4757 11.29
rtibia 52.6714
rfoot -21.1566 -17.4267
rtoes -7.25661
lfemur -30.3104 -0.506977 -30.4682
ltibia 17.235
lfoot -8.00299 -2.59912
ltoes -0.0283291
208
root 2.97638 15.2787 32.4294 225.48 -83.7256 -203.433
lowerback -18.1919 -0.651532 -8.26235
upperback -5.73905 0.274654 -0.950336
thorax 3.92288 -0.0175586 3.71776
lowerneck -21.3852 -1.20578 1.52922
upperneck 22.0106 -2.95997 2.28795
head 10.638 -0.989316 0.107113
rclavicle 1.98785e-015 -5.56597e-015
rhumerus -38.1643 0.569662 -84.0368
rradius 28.9206
rwrist -6.62813
rhand -19.681 -19.8489
rfingers 7.12502
rthumb 6.6478 -49.7246
lclavicle 1.98785e-015 -5.56597e-015
lhumerus -44.6221 -28.7405 97.2426
lradius 31.2086
lwrist 32.1812
lhand -25.2901 1.86304
lfingers 7.12502
lthumb 1.23134 31.8392
rfemur -44.5274 10.3403 11.6411
rtibia 52.688
rfoot -21.5737 -16.034
rtoes -8.53255
lfemur -30.5407 -0.60973 -30.5143
ltibia 17.6225
lfoot -8.13922 -2.59579
ltoes 0.0905958
209
root 2.97465 15.2695 32.4427 225.847 -83.8151 -203.793
lowerback -18.1847 -0.66064 -8.19207
upperback -5.73217 0.251944 -0.976352
thorax 3.93093 -0.0292769 3.64541
lowerneck -21.3669 -1.22486 1.47846
upperneck 22.1477 -2.97821 2.28692
head 10.6856 -1.0013 0.111905
rclavicle -7.92654e-015 2.14687e-014
rhumerus -38.177 0.500588 -84.1094
rradius 28.5406
rwrist -6.63383
rhand -19.4655 -19.9902
rfingers 7.12502
rthumb 6.85582 -49.8592
lclavicle -7.92654e-015 2.14687e-014
lhumerus -44.7392 -28.8873 97.3361
lradius 31.102
lwrist 31.8348
lhand -25.002 1.84307
lfingers 7.12502
lthumb 1.50967 31.8175
rfemur -44.7962 10.2229 12.0302
rtibia 52.6315
rfoot -21.9976 -14.741
rtoes -9.53146
lfemur -30.7711 -0.790362 -30.5145
ltibia 18.0429
lfoot -8.30104 -2.49108
ltoes 0.0145231
210
root 2.97215 15.2605 32.4555 226.092 -83.9168 -204.026
lowerback -18.192 -0.668271 -8.10375
upperback -5.72902 0.228377 -0.990148
thorax 3.9428 -0.041493 3.57584
lowerneck -21.3482 -1.23976 1.42073
upperneck 22.3012 -2.98831 2.28196
head 10.7393 -1.01058 0.117623
rclavicle -3.54085e-015 -1.66979e-014
rhumerus -38.1978 0.47615 -84.1846
rradius 28.1982
rwrist -6.71566
rhand -19.2375 -20.1737
rfingers 7.12502
rthumb 7.07591 -50.0355
lclavicle -3.54085e-015 -1.66979e-014
lhumerus -44.817 -28.9413 97.3846
lradius 30.9901
lwrist 31.5879
lhand -24.7971 1.85463
lfingers 7.12502
lthumb 1.7075 31.8275
rfemur -45.0393 10.1303 12.4566
rtibia 52.506
rfoot -22.4293 -13.5787
rtoes -10.1796
lfemur -31.0186 -0.990956 -30.4852
ltibia 18.4953
lfoot -8.47806 -2.35598
ltoes -0.117556
211
root 2.96893 15.2515 32.4676 226.186 -84.027 -204.11
lowerback -18.2101 -0.662576 -7.99516
upperback -5.72716 0.219584 -1.00365
thorax 3.95755 -0.0465513 3.49829
lowerneck -21.336 -1.26048 1.36604
upperneck 22.4698 -3.00925 2.27864
head 10.7999 -1.02423 0.121649
rclavicle 1.39895e-014 -5.04913e-014
rhumerus -38.2259 0.44153 -84.2548
rradius 27.8975
rwrist -6.8766
rhand -19.0045 -20.3937
rfingers 7.12502
rthumb 7.30078 -50.2478
lclavicle 1.39895e-014 -5.04913e-014
lhumerus -44.8563 -28.9431 97.3879
lradius 30.8752
lwrist 31.4474
lhand -24.6854 1.93906
lfingers 7.12502
lthumb 1.81544 31.9111
rfemur -45.252 10.0749 12.9146
rtibia 52.3177
rfoot -22.8519 -12.5946
rtoes -10.5932
lfemur -31.276 -1.19752 -30.4297
ltibia 18.9722
lfoot -8.66762 -2.20156
ltoes -0.284235
